<svg width="24" height="24" viewBox="0 0 24 24" fill="none" xmlns="http://www.w3.org/2000/svg">
<path d="M3 3H11V5H3V3Z" fill="currentColor"/>
<path d="M3 9H11V11H3V9Z" fill="currentColor"/>
<path d="M3 3H5V11H3V3Z" fill="currentColor"/>
<path d="M9 3H11V11H9V3Z" fill="currentColor"/>
<path d="M13 3H21V5H13V3Z" fill="currentColor"/>
<path d="M13 9H21V11H13V9Z" fill="currentColor"/>
<path d="M13 3H15V11H13V3Z" fill="currentColor"/>
<path d="M19 3H21V11H19V3Z" fill="currentColor"/>
<path d="M3 13H11V15H3V13Z" fill="currentColor"/>
<path d="M3 19H11V21H3V19Z" fill="currentColor"/>
<path d="M3 13H5V21H3V13Z" fill="currentColor"/>
<path d="M9 13H11V21H9V13Z" fill="currentColor"/>
<rect x="13" y="16" width="8" height="2" fill="currentColor"/>
<rect x="16" y="13" width="2" height="8" fill="currentColor"/>
</svg>
