<svg width="24" height="24" viewBox="0 0 24 24" fill="none" xmlns="http://www.w3.org/2000/svg">
<rect x="11" y="1" width="2" height="22" fill="currentColor"/>
<rect x="13.0002" y="3" width="2" height="2" fill="currentColor"/>
<rect x="15.0002" y="5" width="2" height="2" fill="currentColor"/>
<rect x="17" y="7" width="2" height="2" fill="currentColor"/>
<rect x="5.00024" y="5" width="2" height="2" fill="currentColor"/>
<rect x="7.00024" y="7" width="2" height="2" fill="currentColor"/>
<rect x="9" y="9" width="2" height="2" fill="currentColor"/>
<rect width="2" height="2" transform="matrix(-1 0 0 1 11 13)" fill="currentColor"/>
<rect width="2" height="2" transform="matrix(-1 0 0 1 9 15)" fill="currentColor"/>
<rect width="2" height="2" transform="matrix(-1 0 0 1 7.00024 17)" fill="currentColor"/>
<rect x="15.0002" y="9" width="2" height="2" fill="currentColor"/>
<rect x="13.0002" y="11" width="2" height="2" fill="currentColor"/>
<rect x="15.0002" y="13" width="2" height="2" fill="currentColor"/>
<rect x="17" y="15" width="2" height="2" fill="currentColor"/>
<rect x="15.0002" y="17" width="2" height="2" fill="currentColor"/>
<rect x="13.0002" y="18.9999" width="2" height="2" fill="currentColor"/>
</svg>
