<svg width="24" height="24" viewBox="0 0 24 24" fill="none" xmlns="http://www.w3.org/2000/svg">
<path fill-rule="evenodd" clip-rule="evenodd" d="M8.99971 2H6.99972V3.99999H2V5.99999H6.99972V7.99999H8.99971V5.99999H14.9998V7.99999H16.9998V5.99999H21.9999V3.99999H16.9998V2H14.9998V3.99999H8.99971V2ZM3.99999 20H19.9999V12H3.99999V20ZM2 12V9.99999V5.99999H3.99999V9.99999H19.9999V5.99999H21.9999V9.99999V12V20V22V22H2V22V20V12Z" fill="currentColor"/>
<rect x="8" y="10" width="2" height="12" fill="currentColor"/>
<rect x="14" y="10" width="2" height="12" fill="currentColor"/>
<rect x="2" y="15" width="20" height="2" fill="currentColor"/>
</svg>
