<svg width="24" height="24" viewBox="0 0 24 24" fill="none" xmlns="http://www.w3.org/2000/svg">
<path d="M22 2H2V4H22V2Z" fill="currentColor"/>
<path d="M22 20H2V22H22V20Z" fill="currentColor"/>
<path d="M4 2H2V22H4V2Z" fill="currentColor"/>
<path d="M22 2H20V22H22V2Z" fill="currentColor"/>
<path d="M13 11H11V13H13V11Z" fill="currentColor"/>
<path d="M11 9H9V11H11V9Z" fill="currentColor"/>
<path d="M9 7H7V9H9V7Z" fill="currentColor"/>
<path d="M15 13H13V15H15V13Z" fill="currentColor"/>
<path d="M17 15H15V17H17V15Z" fill="currentColor"/>
<path d="M15 9H13V11H15V9Z" fill="currentColor"/>
<path d="M17 7H15V9H17V7Z" fill="currentColor"/>
<path d="M11 13H9V15H11V13Z" fill="currentColor"/>
<path d="M9 15H7V17H9V15Z" fill="currentColor"/>
</svg>
