<svg width="24" height="24" viewBox="0 0 24 24" fill="none" xmlns="http://www.w3.org/2000/svg">
<rect x="5.99976" y="2.00003" width="12" height="2" fill="currentColor"/>
<rect x="17.9998" y="4" width="2" height="2" fill="currentColor"/>
<rect x="4" y="4" width="2" height="2" fill="currentColor"/>
<rect x="17.9998" y="18" width="2" height="2" fill="currentColor"/>
<rect x="4" y="18" width="2" height="2" fill="currentColor"/>
<rect x="5.99976" y="20" width="12" height="2" fill="currentColor"/>
<rect x="19.9998" y="6" width="2" height="12" fill="currentColor"/>
<rect x="1.99976" y="6" width="2" height="12" fill="currentColor"/>
<rect x="10.9998" y="11" width="2" height="2" fill="currentColor"/>
<rect x="8.99976" y="9" width="2" height="2" fill="currentColor"/>
<rect x="6.99976" y="7" width="2" height="2" fill="currentColor"/>
<rect x="12.9998" y="13" width="2" height="2" fill="currentColor"/>
<rect x="15" y="15" width="2" height="2" fill="currentColor"/>
<rect x="12.9998" y="9" width="2" height="2" fill="currentColor"/>
<rect x="15" y="7" width="2" height="2" fill="currentColor"/>
<rect x="8.99976" y="13" width="2" height="2" fill="currentColor"/>
<rect x="6.99976" y="15" width="2" height="2" fill="currentColor"/>
</svg>
