<svg width="24" height="24" viewBox="0 0 24 24" fill="none" xmlns="http://www.w3.org/2000/svg">
<rect width="24" height="24" fill="white"/>
<rect x="18" y="10" width="4" height="2" fill="currentColor"/>
<rect x="22" y="12" width="2" height="6" fill="currentColor"/>
<rect x="2" y="18" width="5" height="2" fill="currentColor"/>
<rect x="17" y="18" width="5" height="2" fill="currentColor"/>
<rect y="12" width="2" height="6" fill="currentColor"/>
<rect x="2" y="10" width="2" height="2" fill="currentColor"/>
<rect x="4" y="8" width="4" height="2" fill="currentColor"/>
<rect x="10" y="4" width="6" height="2" fill="currentColor"/>
<rect x="8" y="6" width="2" height="2" fill="currentColor"/>
<rect x="16" y="6" width="2" height="2" fill="currentColor"/>
<rect x="18" y="8" width="2" height="4" fill="currentColor"/>
<rect width="2" height="11" transform="matrix(1 0 0 -1 11 20)" fill="currentColor"/>
<rect width="6" height="2" transform="matrix(1 0 0 -1 9 18)" fill="currentColor"/>
<rect width="10" height="2" transform="matrix(1 0 0 -1 7 16)" fill="currentColor"/>
</svg>
