<svg width="24" height="24" viewBox="0 0 24 24" fill="none" xmlns="http://www.w3.org/2000/svg">
<path fill-rule="evenodd" clip-rule="evenodd" d="M8.99957 2.00003H6.99957V4.00003H1.99976V6.00003H6.99957V8.00003H8.99957V6.00003H14.9999V8.00003H16.9999V6.00003H21.9998V4.00003H16.9999V2.00003H14.9999V4.00003H8.99957V2.00003ZM3.99976 20.0001H19.9997V12H3.99976V20.0001ZM1.99976 12V10V6.00003H3.99976V10H19.9997V6.00003H21.9997V10H21.9998V12H21.9997V20.0001H21.9998V22.0001H1.99976V22V20.0001V12Z" fill="currentColor"/>
<rect x="6" y="14" width="2" height="2" fill="currentColor"/>
<rect x="10" y="14" width="2" height="2" fill="currentColor"/>
<rect x="14" y="14" width="2" height="2" fill="currentColor"/>
</svg>
