<svg width="24" height="24" viewBox="0 0 24 24" fill="none" xmlns="http://www.w3.org/2000/svg">
<rect x="2" y="4" width="8" height="2" fill="currentColor"/>
<rect x="2" y="20" width="18" height="2" fill="currentColor"/>
<rect x="2" y="4" width="2" height="18" fill="currentColor"/>
<rect x="18" y="14" width="2" height="8" fill="currentColor"/>
<rect x="6" y="11.9999" width="2" height="6" fill="currentColor"/>
<rect x="6" y="16" width="6" height="2" fill="currentColor"/>
<rect x="8" y="9.99994" width="2" height="2" fill="currentColor"/>
<rect x="10" y="8" width="2" height="2" fill="currentColor"/>
<rect x="11.9998" y="6" width="2" height="2" fill="currentColor"/>
<rect x="14" y="4" width="2" height="2" fill="currentColor"/>
<rect x="16" y="2" width="2" height="2" fill="currentColor"/>
<rect x="18" y="4" width="2" height="2" fill="currentColor"/>
<rect x="19.9998" y="6" width="2" height="2" fill="currentColor"/>
<rect x="18" y="8" width="2" height="2" fill="currentColor"/>
<rect x="16" y="9.99994" width="2" height="2" fill="currentColor"/>
<rect x="14" y="11.9999" width="2" height="2" fill="currentColor"/>
<rect x="11.9998" y="14" width="2" height="2" fill="currentColor"/>
</svg>
