<svg width="24" height="24" viewBox="0 0 24 24" fill="none" xmlns="http://www.w3.org/2000/svg">
<rect x="2" y="2" width="2" height="20" fill="currentColor"/>
<rect x="20" y="8" width="2" height="14" fill="currentColor"/>
<rect x="2" y="20" width="20" height="2" fill="currentColor"/>
<rect x="5" y="14" width="4" height="1" fill="currentColor"/>
<rect x="8" y="14" width="1" height="4" fill="currentColor"/>
<rect x="5" y="18" width="3" height="1" fill="currentColor"/>
<rect x="10" y="14" width="1" height="5" fill="currentColor"/>
<rect x="10" y="14" width="3" height="1" fill="currentColor"/>
<rect x="10" y="16" width="3" height="1" fill="currentColor"/>
<rect x="13" y="14" width="1" height="3" fill="currentColor"/>
<rect x="15" y="14" width="4" height="1" fill="currentColor"/>
<rect x="15" y="14" width="1" height="5" fill="currentColor"/>
<rect x="17" y="16" width="2" height="1" fill="currentColor"/>
<rect x="15" y="18" width="4" height="1" fill="currentColor"/>
<rect x="18" y="16" width="1" height="3" fill="currentColor"/>
<rect x="18" y="6" width="2" height="2" fill="currentColor"/>
<rect x="16" y="4" width="2" height="2" fill="currentColor"/>
<rect x="2" y="2" width="14" height="2" fill="currentColor"/>
<rect x="14" y="2" width="2" height="8" fill="currentColor"/>
<rect x="14" y="8" width="8" height="2" fill="currentColor"/>
</svg>
