<svg width="24" height="24" viewBox="0 0 24 24" fill="none" xmlns="http://www.w3.org/2000/svg">
<rect x="9" y="2" width="6" height="2" fill="currentColor"/>
<rect width="6" height="2" transform="matrix(1 0 0 -1 9 22)" fill="currentColor"/>
<rect width="2" height="20" transform="matrix(1 0 0 -1 9 22)" fill="currentColor"/>
<rect width="2" height="20" transform="matrix(1 0 0 -1 13 22)" fill="currentColor"/>
<rect x="22" y="9" width="6" height="2" transform="rotate(90 22 9)" fill="currentColor"/>
<rect x="22" y="9" width="2" height="20" transform="rotate(90 22 9)" fill="currentColor"/>
<rect x="22" y="13" width="2" height="20" transform="rotate(90 22 13)" fill="currentColor"/>
<rect width="6" height="2" transform="matrix(-4.37114e-08 1 1 4.37114e-08 2 9)" fill="currentColor"/>
</svg>
