<svg width="24" height="24" viewBox="0 0 24 24" fill="none" xmlns="http://www.w3.org/2000/svg">
<path d="M3.00024 2.99997H11.0002V4.99997H3.00024V2.99997Z" fill="currentColor"/>
<path d="M3.00024 8.99997H11.0002V11H3.00024V8.99997Z" fill="currentColor"/>
<path d="M3.00024 2.99997H5.00024V11H3.00024V2.99997Z" fill="currentColor"/>
<path d="M9.00025 2.99997H11.0002V11H9.00025V2.99997Z" fill="currentColor"/>
<path d="M13.0002 2.99997H21.0002V4.99997H13.0002V2.99997Z" fill="currentColor"/>
<path d="M13.0002 8.99997H21.0002V11H13.0002V8.99997Z" fill="currentColor"/>
<path d="M13.0002 2.99997H15.0002V11H13.0002V2.99997Z" fill="currentColor"/>
<path d="M19.0002 2.99997H21.0002V11H19.0002V2.99997Z" fill="currentColor"/>
<path d="M3.00024 13.0001H11.0002V15.0001H3.00024V13.0001Z" fill="currentColor"/>
<path d="M3.00024 19.0001H11.0002V21.0001H3.00024V19.0001Z" fill="currentColor"/>
<path d="M3.00024 13.0001H5.00024V21.0001H3.00024V13.0001Z" fill="currentColor"/>
<path d="M9.00025 13.0001H11.0002V21.0001H9.00025V13.0001Z" fill="currentColor"/>
<path d="M13.0002 13.0001H21.0002V15.0001H13.0002V13.0001Z" fill="currentColor"/>
<path d="M13.0002 19.0001H21.0002V21.0001H13.0002V19.0001Z" fill="currentColor"/>
<path d="M13.0002 13.0001H15.0002V21.0001H13.0002V13.0001Z" fill="currentColor"/>
<path d="M19.0002 13.0001H21.0002V21.0001H19.0002V13.0001Z" fill="currentColor"/>
</svg>
