<svg width="24" height="24" viewBox="0 0 24 24" fill="none" xmlns="http://www.w3.org/2000/svg">
<path d="M9 18H11V20H9V18Z" fill="currentColor"/>
<path d="M7 16H9V18H7V16Z" fill="currentColor"/>
<path d="M5 14H7V16H5V14Z" fill="currentColor"/>
<path d="M3 12H5V14H3V12Z" fill="currentColor"/>
<path d="M19 12H21V14H19V12Z" fill="currentColor"/>
<path d="M17 14H19V16H17V14Z" fill="currentColor"/>
<path d="M15 16H17V18H15V16Z" fill="currentColor"/>
<path d="M13 18H15V20H13V18Z" fill="currentColor"/>
<path d="M11 20H13V22H11V20Z" fill="currentColor"/>
<path d="M3 4H5V6H3V4Z" fill="currentColor"/>
<path d="M19 4H21V6H19V4Z" fill="currentColor"/>
<path d="M9 4H11V6H9V4Z" fill="currentColor"/>
<path d="M11 6H13V8H11V6Z" fill="currentColor"/>
<path d="M13 4H15V6H13V4Z" fill="currentColor"/>
<path d="M5 2H9V4H5V2Z" fill="currentColor"/>
<path d="M15 2H19V4H15V2Z" fill="currentColor"/>
<path d="M1 6H3V12H1V6Z" fill="currentColor"/>
<path d="M21 6H23V12H21V6Z" fill="currentColor"/>
</svg>
