<svg width="24" height="24" viewBox="0 0 24 24" fill="none" xmlns="http://www.w3.org/2000/svg">
<path fill-rule="evenodd" clip-rule="evenodd" d="M20.9998 2.00006H18.9998V2.00014H4.99984H2.99984V4.00014V10H2.99976V12H2.99984V16H2.99976V18H20.9998L20.9998 16.0001V12H21V10H20.9998V4.00014H20.9998V2.00014H20.9998V2.00006ZM18.9998 10V4.00014H4.99984V10H9.99976V12H14V10H18.9998ZM4.99984 12L7.99986 12V14H15.9999V12L18.9998 12V16H4.99984V12ZM4.99976 20V18H2.99976V20V22H4.99976H18.9998H20.9998L20.9998 18H18.9998V20H4.99976Z" fill="currentColor"/>
</svg>
