<svg width="24" height="24" viewBox="0 0 24 24" fill="none" xmlns="http://www.w3.org/2000/svg">
<rect x="2" y="2" width="10" height="2" fill="black"/>
<rect x="2" y="2" width="2" height="10" fill="black"/>
<rect x="12" y="4" width="2" height="2" fill="black"/>
<rect x="4" y="12" width="2" height="2" fill="black"/>
<rect x="14" y="6" width="2" height="2" fill="black"/>
<rect x="6" y="14" width="2" height="2" fill="black"/>
<rect x="16" y="8" width="2" height="2" fill="black"/>
<rect x="8" y="16" width="2" height="2" fill="black"/>
<rect x="6" y="6" width="2" height="2" fill="black"/>
<rect x="18" y="10" width="2" height="2" fill="black"/>
<rect x="20" y="12" width="2" height="2" fill="black"/>
<rect x="14" y="18" width="2" height="2" fill="black"/>
<rect x="12" y="20" width="2" height="2" fill="black"/>
<rect x="18" y="14" width="2" height="2" fill="black"/>
<rect x="16" y="16" width="2" height="2" fill="black"/>
<rect x="10" y="18" width="2" height="2" fill="black"/>
</svg>
