<?xml version="1.0" encoding="UTF-8" standalone="no"?>
<svg
   fill="none"
   viewBox="0 0 24 24"
   version="1.1"
   id="svg4"
   sodipodi:docname="light.svg"
   inkscape:version="1.2.2 (b0a8486541, 2022-12-01)"
   xmlns:inkscape="http://www.inkscape.org/namespaces/inkscape"
   xmlns:sodipodi="http://sodipodi.sourceforge.net/DTD/sodipodi-0.dtd"
   xmlns="http://www.w3.org/2000/svg"
   xmlns:svg="http://www.w3.org/2000/svg">
  <path
     id="path415"
     style="fill:currentColor"
     d="M 8 1 L 8 3 L 16 3 L 16 1 L 8 1 z M 16 3 L 16 7 L 18 7 L 18 3 L 16 3 z M 18 7 L 18 11 L 20 11 L 20 7 L 18 7 z M 18 11 L 16 11 L 16 15 L 18 15 L 18 11 z M 16 15 L 14 15 L 12 15 L 12 13 L 10 13 L 10 15 L 8 15 L 8 21 L 10 21 L 10 23 L 14 23 L 14 21 L 16 21 L 16 15 z M 8 15 L 8 11 L 6 11 L 6 15 L 8 15 z M 6 11 L 6 7 L 4 7 L 4 11 L 6 11 z M 6 7 L 8 7 L 8 3 L 6 3 L 6 7 z M 12 13 L 14 13 L 14 11 L 12 11 L 12 13 z M 12 11 L 12 9 L 10 9 L 10 11 L 12 11 z M 12 9 L 14 9 L 14 7 L 12 7 L 12 9 z " />
  <defs
     id="defs8" />
  <sodipodi:namedview
     id="namedview6"
     pagecolor="#ffffff"
     bordercolor="#666666"
     borderopacity="1.0"
     inkscape:showpageshadow="2"
     inkscape:pageopacity="0.0"
     inkscape:pagecheckerboard="0"
     inkscape:deskcolor="#d1d1d1"
     showgrid="true"
     inkscape:zoom="15.512155"
     inkscape:cx="12.02283"
     inkscape:cy="27.140007"
     inkscape:window-width="2560"
     inkscape:window-height="1403"
     inkscape:window-x="0"
     inkscape:window-y="0"
     inkscape:window-maximized="1"
     inkscape:current-layer="svg4">
    <inkscape:grid
       type="xygrid"
       id="grid417" />
  </sodipodi:namedview>
</svg>
