<svg width="24" height="24" viewBox="0 0 24 24" fill="none" xmlns="http://www.w3.org/2000/svg">

<rect x="11" y="1" width="2" height="5" fill="currentColor"/>
<rect x="11" y="18" width="2" height="5" fill="currentColor"/>
<rect x="23" y="11" width="2" height="5" transform="rotate(90 23 11)" fill="currentColor"/>
<rect x="6" y="11" width="2" height="5" transform="rotate(90 6 11)" fill="currentColor"/>
<rect x="16" y="5" width="2" height="2" fill="currentColor"/>
<rect x="18" y="3" width="2" height="2" fill="currentColor"/>
<rect width="2" height="2" transform="matrix(-1 0 0 1 8 5)" fill="currentColor"/>
<rect width="2" height="2" transform="matrix(-1 0 0 1 6 3)" fill="currentColor"/>
<rect width="2" height="2" transform="matrix(1 0 0 -1 16 19)" fill="currentColor"/>
<rect width="2" height="2" transform="matrix(1 0 0 -1 18 21)" fill="currentColor"/>
<rect x="8" y="19" width="2" height="2" transform="rotate(-180 8 19)" fill="currentColor"/>
<rect x="6" y="21" width="2" height="2" transform="rotate(-180 6 21)" fill="currentColor"/>
<rect x="9" y="8" width="6" height="2" fill="currentColor"/>
<rect x="9" y="14" width="6" height="2" fill="currentColor"/>
<rect x="8" y="8" width="2" height="8" fill="currentColor"/>
<rect x="14" y="8" width="2" height="8" fill="currentColor"/>
</svg>
