<svg width="24" height="24" viewBox="0 0 24 24" fill="none" xmlns="http://www.w3.org/2000/svg">
<rect x="6.00024" y="2.00002" width="12" height="2" fill="currentColor"/>
<rect x="18" y="3.99998" width="2" height="2" fill="currentColor"/>
<rect x="4" y="3.99998" width="2" height="2" fill="currentColor"/>
<rect x="18" y="18" width="2" height="2" fill="currentColor"/>
<rect x="4" y="18" width="2" height="2" fill="currentColor"/>
<rect x="6.00024" y="20" width="12" height="2" fill="currentColor"/>
<rect x="20.0002" y="5.99998" width="2" height="12" fill="currentColor"/>
<rect x="2" y="5.99998" width="2" height="12" fill="currentColor"/>
<rect x="7.00024" y="12" width="2" height="2" fill="currentColor"/>
<rect x="9" y="14" width="2" height="2" fill="currentColor"/>
<rect width="2" height="2" transform="matrix(-1 0 0 1 17 7.99998)" fill="currentColor"/>
<rect width="2" height="2" transform="matrix(-1 0 0 1 15.0002 9.99998)" fill="currentColor"/>
<rect width="2" height="2" transform="matrix(-1 0 0 1 13.0002 12)" fill="currentColor"/>
</svg>
