<svg width="24" height="24" viewBox="0 0 24 24" fill="none" xmlns="http://www.w3.org/2000/svg">
<rect x="18" y="5" width="2" height="2" fill="currentColor"/>
<rect x="16" y="3" width="2" height="6" fill="currentColor"/>
<rect x="14" y="1" width="2" height="10" fill="currentColor"/>
<rect width="2" height="2" transform="matrix(-1 0 0 1 6 16)" fill="currentColor"/>
<rect width="2" height="7" transform="matrix(-1 0 0 1 4 5)" fill="currentColor"/>
<rect width="2" height="6" transform="matrix(-1 0 0 1 8 14)" fill="currentColor"/>
<rect width="2" height="10" transform="matrix(-1 0 0 1 10 12)" fill="currentColor"/>
<rect x="4" y="5" width="11" height="2" fill="currentColor"/>
<rect width="2" height="7" transform="matrix(1 0 0 -1 20 18)" fill="currentColor"/>
<rect x="20" y="18" width="11" height="2" transform="rotate(-180 20 18)" fill="currentColor"/>
</svg>
