<svg width="24" height="24" viewBox="0 0 24 24" fill="none" xmlns="http://www.w3.org/2000/svg">
<rect width="24" height="24" fill="white"/>
<rect x="13" y="5" width="2" height="2" fill="currentColor"/>
<rect x="17" y="5" width="4" height="2" fill="currentColor"/>
<rect x="3" y="17" width="4" height="2" fill="currentColor"/>
<rect x="11" y="3" width="2" height="6" fill="currentColor"/>
<rect x="9" y="1" width="2" height="10" fill="currentColor"/>
<rect width="12" height="2" transform="matrix(-1 0 0 1 21 17)" fill="currentColor"/>
<rect width="2" height="14" transform="matrix(-1 0 0 1 5 5)" fill="currentColor"/>
<rect width="2" height="6" transform="matrix(-1 0 0 1 13 15)" fill="currentColor"/>
<rect width="2" height="10" transform="matrix(-1 0 0 1 15 13)" fill="currentColor"/>
<rect x="3" y="5" width="9" height="2" fill="currentColor"/>
<rect width="2" height="14" transform="matrix(1 0 0 -1 19 19)" fill="currentColor"/>
</svg>
