<svg width="24" height="24" viewBox="0 0 24 24" fill="none" xmlns="http://www.w3.org/2000/svg">
<rect width="2" height="2" transform="matrix(-1 0 0 1 8 11)" fill="currentColor"/>
<rect width="2" height="6" transform="matrix(-1 0 0 1 10 9)" fill="currentColor"/>
<rect width="2" height="10" transform="matrix(-1 0 0 1 12 7)" fill="currentColor"/>
<rect width="2" height="14" transform="matrix(-1 0 0 1 14 5)" fill="currentColor"/>
<rect x="9" y="9" width="13" height="6" fill="currentColor"/>
<rect x="8" y="5" width="2" height="2" fill="currentColor"/>
<rect x="6" y="7" width="2" height="2" fill="currentColor"/>
<rect x="4" y="9" width="2" height="2" fill="currentColor"/>
<rect x="2" y="11" width="2" height="2" fill="currentColor"/>
<rect x="4" y="13" width="2" height="2" fill="currentColor"/>
<rect x="6" y="15" width="2" height="2" fill="currentColor"/>
<rect x="8" y="17" width="2" height="2" fill="currentColor"/>
</svg>
