<svg width="24" height="24" viewBox="0 0 24 24" fill="none" xmlns="http://www.w3.org/2000/svg">
<rect width="14" height="2" transform="matrix(-1 0 0 1 20 11)" fill="currentColor"/>
<rect width="2" height="10" transform="matrix(-1 0 0 1 12 7)" fill="currentColor"/>
<rect width="2" height="14" transform="matrix(-1 0 0 1 14 5)" fill="currentColor"/>
<rect width="2" height="2" transform="matrix(-1 0 0 1 10 5)" fill="currentColor"/>
<rect width="2" height="2" transform="matrix(-1 0 0 1 8 7)" fill="currentColor"/>
<rect width="2" height="2" transform="matrix(-1 0 0 1 6 9)" fill="currentColor"/>
<rect width="2" height="2" transform="matrix(-1 0 0 1 4 11)" fill="currentColor"/>
<rect width="2" height="2" transform="matrix(-1 0 0 1 6 13)" fill="currentColor"/>
<rect width="2" height="2" transform="matrix(-1 0 0 1 8 15)" fill="currentColor"/>
<rect width="2" height="2" transform="matrix(-1 0 0 1 10 17)" fill="currentColor"/>
<path d="M8 9H20V15H8V9Z" fill="currentColor"/>
<rect x="20" y="11" width="2" height="6" fill="currentColor"/>
</svg>
