<svg width="24" height="24" viewBox="0 0 24 24" fill="none" xmlns="http://www.w3.org/2000/svg">
<path d="M2 2H4V22H2V2Z" fill="currentColor"/>
<path d="M2 20H22V22H2V20Z" fill="currentColor"/>
<path d="M20 6H22V22H20V6Z" fill="currentColor"/>
<path d="M18 4H20V6H18V4Z" fill="currentColor"/>
<path d="M2 2H18V4H2V2Z" fill="currentColor"/>
<path d="M6 12H8V22H6V12Z" fill="currentColor"/>
<path d="M8 2H10V8H8V2Z" fill="currentColor"/>
<path d="M14 2H16V8H14V2Z" fill="currentColor"/>
<path d="M6 12H18V14H6V12Z" fill="currentColor"/>
<path d="M16 12H18V22H16V12Z" fill="currentColor"/>
<path d="M8 6H16V8H8V6Z" fill="currentColor"/>
</svg>
