<svg width="24" height="24" viewBox="0 0 24 24" fill="none" xmlns="http://www.w3.org/2000/svg">
<rect x="8" y="2" width="14" height="2" fill="currentColor"/>
<rect x="2" y="8" width="2" height="6" fill="currentColor"/>
<rect x="20" y="2" width="2" height="12" fill="currentColor"/>
<rect x="3.99976" y="14.0001" width="2" height="2" fill="currentColor"/>
<rect x="6" y="16.0001" width="2" height="2" fill="currentColor"/>
<rect x="10" y="20" width="4" height="2" fill="currentColor"/>
<rect width="2" height="2" transform="matrix(-1 0 0 1 10 18)" fill="currentColor"/>
<rect width="2" height="2" transform="matrix(-1 0 0 1 18 16.0001)" fill="currentColor"/>
<rect x="2" y="2" width="2" height="2" fill="currentColor"/>
<rect x="4" y="4" width="2" height="2" fill="currentColor"/>
<rect x="6" y="6" width="2" height="2" fill="currentColor"/>
<rect x="8" y="8" width="2" height="2" fill="currentColor"/>
<rect x="10" y="10" width="2" height="2" fill="currentColor"/>
<rect x="12" y="12" width="2" height="2" fill="currentColor"/>
<rect x="14" y="14" width="2" height="2" fill="currentColor"/>
<rect x="18" y="18" width="2" height="2" fill="currentColor"/>
<rect x="20" y="20" width="2" height="2" fill="currentColor"/>
</svg>
