<svg width="24" height="24" viewBox="0 0 24 24" fill="none" xmlns="http://www.w3.org/2000/svg">
<rect width="2" height="2" transform="matrix(1 0 0 -1 2 8)" fill="currentColor"/>
<rect width="2" height="2" transform="matrix(1 0 0 -1 4 10)" fill="currentColor"/>
<rect width="2" height="2" transform="matrix(1 0 0 -1 6 12)" fill="currentColor"/>
<rect width="2" height="2" transform="matrix(1 0 0 -1 8 14)" fill="currentColor"/>
<rect width="2" height="2" transform="matrix(1 0 0 -1 10 12)" fill="currentColor"/>
<rect width="2" height="2" transform="matrix(1 0 0 -1 12 10)" fill="currentColor"/>
<rect width="2" height="2" transform="matrix(1 0 0 -1 14 12)" fill="currentColor"/>
<rect width="2" height="2" transform="matrix(1 0 0 -1 16 14)" fill="currentColor"/>
<rect width="2" height="2" transform="matrix(1 0 0 -1 18 16)" fill="currentColor"/>
<rect width="8" height="2" transform="matrix(1 0 0 -1 14 18)" fill="currentColor"/>
<rect width="2" height="8" transform="matrix(1 0 0 -1 20 18)" fill="currentColor"/>
</svg>
