<svg width="24" height="24" viewBox="0 0 24 24" fill="none" xmlns="http://www.w3.org/2000/svg">
<rect x="1" y="8" width="4" height="2" fill="black"/>
<rect x="1" y="14" width="4" height="2" fill="black"/>
<rect x="5" y="6" width="2" height="2" fill="black"/>
<rect x="5" y="16" width="2" height="2" fill="black"/>
<rect x="7" y="4" width="2" height="2" fill="black"/>
<rect x="7" y="18" width="2" height="2" fill="black"/>
<rect x="9" y="2" width="2" height="20" fill="black"/>
<rect x="1" y="8" width="2" height="8" fill="black"/>
<rect x="17.0002" y="11.2233" width="2" height="2" fill="black"/>
<rect x="15.0005" y="9.22327" width="2" height="2" fill="black"/>
<rect x="13" y="7.22327" width="2" height="2" fill="black"/>
<rect x="19.0002" y="13.2233" width="2" height="2" fill="black"/>
<rect x="21.0005" y="15.2233" width="2" height="2" fill="black"/>
<rect x="19.0002" y="9.22327" width="2" height="2" fill="black"/>
<rect x="21.0005" y="7.22327" width="2" height="2" fill="black"/>
<rect x="15.0005" y="13.2233" width="2" height="2" fill="black"/>
<rect x="13" y="15.2233" width="2" height="2" fill="black"/>
</svg>
