<svg width="24" height="24" viewBox="0 0 24 24" fill="none" xmlns="http://www.w3.org/2000/svg">
<path d="M18 2H2V4H18V2Z" fill="currentColor"/>
<path d="M18 16H2V18H18V16Z" fill="currentColor"/>
<path d="M4 2H2V18H4V2Z" fill="currentColor"/>
<path d="M18 2H16V18H18V2Z" fill="currentColor"/>
<path d="M18 16H16V18H18V16Z" fill="currentColor"/>
<path d="M20 18H18V20H20V18Z" fill="currentColor"/>
<path d="M22 20H20V22H22V20Z" fill="currentColor"/>
<path d="M11 6H9V14H11V6Z" fill="currentColor"/>
<path d="M14 11V9H6V11H14Z" fill="currentColor"/>
<path d="M18 2H2V4H18V2Z" fill="currentColor"/>
<path d="M18 16H2V18H18V16Z" fill="currentColor"/>
<path d="M4 4H2V16H4V4Z" fill="currentColor"/>
<path d="M18 4H16V16H18V4Z" fill="currentColor"/>
<path d="M18 16H16V18H18V16Z" fill="currentColor"/>
<path d="M20 18H18V20H20V18Z" fill="currentColor"/>
<path d="M22 20H20V22H22V20Z" fill="currentColor"/>
<path d="M14 11V9H6V11H14Z" fill="currentColor"/>
</svg>
