<svg xmlns="http://www.w3.org/2000/svg">
    <defs>
        <symbol id="file" viewBox="0 0 24 24">
            <path fill-rule="evenodd" clip-rule="evenodd" d="M4 22h16V8h-2V6h-2V4h-2V2H4v20zM16 8V6h-2v2h2zm-4-4H6v16h12V10h-6V4z" fill="#000"/>
        </symbol>
        <symbol id="mail" viewBox="0 0 24 24">
            <path fill-rule="evenodd" clip-rule="evenodd" d="M22 4v16H2V4h20zM6 6h12v2h-2v2h-2v2h-4v-2H8V8H6V6zm0 2v2h2v2h2v2h4v-2h2v-2h2V8h2v10H4V8h2z" fill="#000"/>
        </symbol>
    </defs>
</svg>